<svg class="silbo-traced-logo" xmlns="http://www.w3.org/2000/svg" width="642" height="516" viewBox="0 0 642 516" version="1.1">
	<path d="M 347 89.612 C 315.774 93.240, 304.768 95.150, 284.500 100.462 C 233.338 113.868, 188.907 138.742, 169.050 165.094 C 152.866 186.571, 149.707 208.161, 159.698 229 C 163.018 235.924, 177.644 251, 181.041 251 C 182.306 251, 191.026 246.439, 200.420 240.864 C 237.544 218.834, 251 210.591, 251 209.879 C 251 209.469, 250.142 208.862, 249.092 208.529 C 246.342 207.656, 239.105 199.495, 237.344 195.280 C 232.802 184.410, 237.699 170.462, 250.580 157.581 C 275.834 132.327, 326.737 112.254, 385.500 104.377 C 403.238 101.999, 445.039 101.974, 463.845 104.329 C 479.456 106.284, 479.713 106.297, 478.450 105.097 C 477.204 103.913, 459.005 98.760, 446.502 96.051 C 424.302 91.241, 409.951 89.841, 379.500 89.516 C 363.550 89.345, 348.925 89.388, 347 89.612 M 502.115 126.537 C 498.752 130.132, 496 133.576, 496 134.191 C 496 134.806, 499.767 138.952, 504.371 143.405 C 530.020 168.209, 545.013 203.621, 544.994 239.349 C 544.983 260.928, 540.607 279.928, 531.257 299 C 528.157 305.325, 525.635 310.725, 525.653 311 C 525.727 312.101, 538.645 318.962, 540.678 318.980 C 542.270 318.995, 543.786 317.454, 546.317 313.250 C 558.671 292.732, 564.737 273.684, 567.075 248.065 C 569.962 216.425, 561.274 183.271, 542.556 154.500 C 532.149 138.503, 514.786 120, 510.181 120 C 509.068 120, 505.602 122.808, 502.115 126.537 M 469.528 156.509 C 465.938 160.153, 463.012 163.891, 463.026 164.817 C 463.040 165.743, 465.299 168.025, 468.046 169.888 C 478.987 177.310, 491.454 193.853, 497.099 208.441 C 502.662 222.815, 504.266 232.612, 503.659 248.500 C 503.030 264.978, 500.227 276.793, 494.098 288.807 C 492.944 291.070, 492 293.179, 492 293.496 C 492 293.813, 495.675 295.849, 500.166 298.021 C 506.613 301.139, 508.629 301.723, 509.744 300.798 C 513.272 297.870, 520.631 278.967, 523.322 265.922 C 529.751 234.750, 522.783 201.760, 504.215 175.462 C 496.357 164.333, 483.736 152.215, 478.278 150.558 C 476.455 150.004, 474.887 151.070, 469.528 156.509 M 354 180.009 C 327.448 183.657, 308.531 191.099, 273.500 211.677 C 264.150 217.170, 232.425 235.840, 203 253.167 C 140.804 289.790, 110.593 307.342, 106.805 309.053 C 105.323 309.723, 103.889 310.846, 103.620 311.548 C 102.967 313.249, 113.898 356.178, 115.359 357.651 C 116.526 358.829, 163.629 379.106, 183.923 387.168 C 194.945 391.546, 194.928 391.624, 188.504 366.017 C 183.696 346.851, 183.390 344.961, 184.876 343.660 C 185.769 342.878, 199.550 333.266, 215.500 322.300 C 274.070 282.031, 289.960 270.966, 311.500 255.454 C 346.041 230.578, 353.859 225.173, 363.653 219.396 C 382.741 208.137, 401.070 203.447, 416.747 205.809 C 427.767 207.469, 439.328 213.427, 446.442 221.110 C 449.416 224.323, 452.139 227.863, 452.492 228.976 C 453.481 232.089, 454.968 231.375, 454.064 228.222 C 450.337 215.228, 436.276 202.289, 421.650 198.395 C 413.951 196.345, 398.791 196.628, 389.410 198.998 C 378.950 201.640, 362.326 209.853, 347.368 219.770 C 335.502 227.637, 330.086 231.395, 282 265.126 C 221.116 307.835, 184.954 332.133, 182.745 331.816 C 180.872 331.547, 181.578 330.761, 187 327.074 C 190.575 324.643, 197.718 319.542, 202.874 315.737 C 210.667 309.987, 212.017 308.604, 210.874 307.539 C 210.118 306.835, 199.938 301.820, 188.250 296.394 C 176.563 290.969, 167 286.203, 167 285.803 C 167 285.403, 172.512 281.845, 179.250 277.895 C 185.988 273.945, 199.600 265.896, 209.500 260.009 C 238.462 242.786, 282.746 216.765, 292.651 211.150 C 310.340 201.123, 327.155 194.394, 344.280 190.489 C 364.051 185.980, 390.148 184.709, 405.931 187.487 C 410.569 188.303, 414.570 188.763, 414.823 188.510 C 415.677 187.656, 405.601 183.889, 397.022 181.856 C 387.271 179.544, 364.496 178.566, 354 180.009 M 443.021 184.479 C 440.603 186.943, 438.822 189.120, 439.062 189.317 C 439.303 189.514, 441.540 191.054, 444.034 192.737 C 446.528 194.421, 451.553 198.963, 455.202 202.831 C 472.605 221.279, 477.810 249.841, 468.527 275.955 C 467.656 278.406, 467.162 280.979, 467.428 281.674 C 467.695 282.368, 469.592 283.638, 471.644 284.496 C 476.248 286.419, 476.810 285.932, 480.299 277 C 490.485 250.923, 487.145 221.263, 471.583 199.607 C 465.179 190.695, 452.932 180, 449.132 180 C 448.188 180, 445.438 182.016, 443.021 184.479 M 390.300 215.506 C 380.212 217.699, 367.109 225.108, 358.739 233.352 C 344.618 247.262, 337.305 262.614, 336.296 280.466 C 335.829 288.736, 336.105 291.987, 337.869 298.959 C 342.529 317.378, 354.582 330.433, 372.001 335.931 C 385.401 340.160, 402.627 337.595, 416.246 329.342 C 432.224 319.660, 444.584 302.804, 449.538 283.942 C 451.640 275.936, 451.919 260.346, 450.092 253 C 443.125 225.002, 418.284 209.425, 390.300 215.506 M 391.721 226.505 C 372.825 231.284, 356.472 246.640, 350.366 265.338 C 347.016 275.595, 346.611 289.290, 349.391 298.319 C 351.735 305.934, 358.420 315.588, 364.249 319.774 C 386.623 335.846, 417.839 324.629, 433.481 294.897 C 441.473 279.705, 442.133 259.957, 435.107 246.220 C 427.230 230.815, 408.439 222.277, 391.721 226.505 M 348.863 231.513 C 345.681 233.242, 337.850 243.035, 332.338 252.177 C 323.238 267.274, 319.745 287.768, 323.442 304.384 C 328.364 326.505, 344.787 344.475, 366.165 351.128 C 369.472 352.158, 373.938 353, 376.089 353 C 378.240 353, 380 353.399, 380 353.887 C 380 355.934, 366.065 357.498, 348.500 357.423 C 332.178 357.354, 329.579 357.094, 320.615 354.641 C 315.178 353.154, 310.547 352.120, 310.322 352.345 C 309.658 353.009, 322.241 357.769, 330.681 360.046 C 341.797 363.046, 361.487 363.748, 374 361.592 C 398.521 357.366, 421.880 345.769, 438.194 329.723 C 444.930 323.097, 453.765 311.432, 452.787 310.454 C 452.562 310.229, 450.712 312.227, 448.678 314.896 C 440.571 325.525, 424.944 337.176, 411.845 342.356 C 404.020 345.450, 392.587 348.007, 386.685 347.983 C 379.758 347.954, 369.002 345.223, 361.176 341.506 C 351.781 337.045, 341.093 326.721, 337.532 318.667 C 330.961 303.810, 330.131 287.657, 334.988 269.186 C 338.625 255.353, 340.522 250.969, 347.356 240.589 C 350.285 236.140, 353.005 231.938, 353.400 231.250 C 354.356 229.586, 352.176 229.713, 348.863 231.513 M 144.626 298.564 C 136.996 303.120, 130.306 307.294, 129.761 307.839 C 128.496 309.104, 129.993 309.867, 154.581 320.497 L 174.394 329.063 183.447 322.856 C 194.636 315.184, 200 311.053, 200 310.108 C 200 309.710, 198.088 308.547, 195.750 307.523 C 193.412 306.500, 186.325 303.212, 180 300.218 C 173.675 297.224, 166.250 293.764, 163.500 292.528 L 158.500 290.281 144.626 298.564 M 463.712 310.700 C 460.806 344.387, 430.206 374.605, 378 395.341 C 313.050 421.139, 221.229 423.561, 148.147 401.405 C 143.553 400.012, 139.550 399.117, 139.251 399.415 C 138.333 400.333, 155.798 407.905, 169.500 412.529 C 204.432 424.318, 237.589 429.667, 282 430.678 C 309.797 431.311, 330.639 430.215, 353.500 426.917 C 412.600 418.392, 463.889 398.707, 488.231 375.207 C 496.638 367.091, 500.477 361.201, 502.494 353.328 C 504.325 346.185, 503.533 340.979, 499.353 332.675 C 495.867 325.749, 484.110 314.500, 474.922 309.299 C 463.695 302.944, 464.388 302.857, 463.712 310.700 M 113.340 319.599 C 113.654 320.644, 115.534 328.025, 117.517 336 C 119.501 343.975, 121.658 351.032, 122.312 351.682 C 122.965 352.332, 133.625 357.216, 146 362.537 C 158.375 367.857, 172.037 373.742, 176.361 375.615 C 181.095 377.665, 184.021 378.496, 183.717 377.704 C 183.439 376.982, 181.805 370.115, 180.084 362.445 C 176.742 347.551, 175.592 344, 174.109 344 C 173.595 344, 160.198 338.328, 144.337 331.396 C 128.477 324.464, 114.886 318.546, 114.135 318.245 C 113.170 317.858, 112.937 318.256, 113.340 319.599 M 284.168 321.533 C 271.321 324.322, 259.360 331.437, 216.500 361.787 C 199.170 374.059, 198.489 374.671, 198.192 378.224 C 197.857 382.244, 199.355 386, 201.293 386 C 201.965 386, 207.012 382.988, 212.508 379.306 C 236.196 363.437, 260.215 348.317, 269.500 343.431 C 292.933 331.100, 308.767 330.171, 329.551 339.911 C 334.279 342.126, 338.001 343.571, 337.823 343.122 C 337.645 342.672, 334.383 339.550, 330.574 336.184 C 322.087 328.684, 312.215 323.365, 303.257 321.467 C 295.102 319.739, 292.393 319.748, 284.168 321.533" stroke="none" fill="currentColor" fill-rule="evenodd"/>
</svg>