<svg xmlns="http://www.w3.org/2000/svg" width="1920" height="1080" viewBox="0 0 1920 1080" fill="none">
  <defs>
    <linearGradient id="waveA" x1="0" y1="0" x2="1920" y2="0" gradientUnits="userSpaceOnUse">
      <stop stop-color="#20D77B" stop-opacity="0"/><stop offset=".16" stop-color="#20D77B" stop-opacity=".65"/>
      <stop offset=".5" stop-color="#45C7D4" stop-opacity=".3"/><stop offset=".82" stop-color="#EF6BAF" stop-opacity=".42"/>
      <stop offset="1" stop-color="#EF6BAF" stop-opacity="0"/>
    </linearGradient>
    <linearGradient id="stepGreen" x1="0" y1="0" x2="1080" y2="0" gradientUnits="userSpaceOnUse"><stop stop-color="#20D77B" stop-opacity=".74"/><stop offset=".68" stop-color="#20D77B" stop-opacity=".42"/><stop offset="1" stop-color="#20D77B" stop-opacity="0"/></linearGradient>
    <linearGradient id="stepPink" x1="1920" y1="0" x2="840" y2="0" gradientUnits="userSpaceOnUse"><stop stop-color="#EF6BAF" stop-opacity=".72"/><stop offset=".68" stop-color="#EF6BAF" stop-opacity=".4"/><stop offset="1" stop-color="#EF6BAF" stop-opacity="0"/></linearGradient>
    <linearGradient id="fade" x1="0" y1="0" x2="1" y2="0"><stop stop-color="white"/><stop offset=".28" stop-color="white" stop-opacity=".7"/><stop offset=".43" stop-color="black" stop-opacity=".08"/><stop offset=".7" stop-color="white" stop-opacity=".55"/><stop offset="1" stop-color="white"/></linearGradient>
    <mask id="edgeFade"><rect width="1920" height="1080" fill="url(#fade)"/></mask>
    <radialGradient id="gridFade" cx="0" cy="0" r="1" gradientTransform="translate(86 66) rotate(34) scale(330 230)" gradientUnits="userSpaceOnUse"><stop stop-color="white" stop-opacity=".82"/><stop offset=".48" stop-color="white" stop-opacity=".5"/><stop offset="1" stop-color="black" stop-opacity="0"/></radialGradient>
    <mask id="gridMask"><rect x="24" y="24" width="390" height="270" fill="url(#gridFade)"/></mask>
  </defs>
  <g transform="translate(32 32)" stroke="#20D77B" stroke-opacity=".28" mask="url(#gridMask)">
    <path d="M0 0h352v224H0zM32 0v224M64 0v224M96 0v224M128 0v224M160 0v224M192 0v224M224 0v224M256 0v224M288 0v224M320 0v224M0 32h352M0 64h352M0 96h352M0 128h352M0 160h352M0 192h352"/>
  </g>
  <g mask="url(#edgeFade)" stroke="url(#waveA)" stroke-width="2">
    <path d="M-40 302C72 302 72 260 184 260S296 342 408 342s112-58 224-58 112 20 224 20 112-12 224-12 112 50 224 50 112-84 224-84 112 44 224 44 112-20 224-20 112 36 224 36"/>
    <path d="M-20 765c96 0 96-48 192-48s96 92 192 92 96-66 192-66 96 28 192 28 96-18 192-18 96 58 192 58 96-98 192-98 96 54 192 54 96-26 192-26 96 42 192 42" opacity=".76"/>
  </g>
  <g fill="none" stroke-linecap="square" opacity=".62"><path d="M0 618h110v-18h44v36h42v-18h884" stroke="url(#stepGreen)" stroke-width="2"/><path d="M1920 468h-116v-28h-42v56h-42v-28H840" stroke="url(#stepPink)" stroke-width="2"/></g>
  <g opacity=".9">
    <rect x="64" y="96" width="18" height="18" rx="2" fill="#20D77B"/><rect x="88" y="96" width="8" height="8" rx="1" fill="#45C7D4"/><rect x="64" y="120" width="8" height="8" rx="1" fill="#F0B93F"/><rect x="114" y="162" width="10" height="10" rx="1" fill="#EF6BAF"/><rect x="151" y="132" width="6" height="6" fill="#20D77B" fill-opacity=".6"/>
    <rect x="1788" y="104" width="18" height="18" rx="2" fill="#F0B93F"/><rect x="1812" y="104" width="8" height="8" rx="1" fill="#EF6BAF"/><rect x="1798" y="128" width="8" height="8" rx="1" fill="#45C7D4"/><rect x="1846" y="158" width="10" height="10" rx="1" fill="#20D77B"/>
    <rect x="104" y="880" width="22" height="22" rx="2" fill="#45C7D4"/><rect x="132" y="880" width="9" height="9" rx="1" fill="#20D77B"/><rect x="104" y="908" width="9" height="9" rx="1" fill="#EF6BAF"/><rect x="158" y="936" width="7" height="7" fill="#F0B93F"/>
    <rect x="1784" y="862" width="20" height="20" rx="2" fill="#EF6BAF"/><rect x="1810" y="862" width="9" height="9" rx="1" fill="#F0B93F"/><rect x="1794" y="888" width="9" height="9" rx="1" fill="#20D77B"/><rect x="1840" y="922" width="7" height="7" fill="#45C7D4"/>
    <rect x="286" y="418" width="11" height="11" rx="1" fill="#45C7D4" fill-opacity=".62"/><rect x="306" y="438" width="6" height="6" fill="#EF6BAF" fill-opacity=".72"/><rect x="1618" y="684" width="12" height="12" rx="1" fill="#F0B93F" fill-opacity=".66"/><rect x="1598" y="704" width="7" height="7" fill="#20D77B" fill-opacity=".72"/>
  </g>
</svg>
